<svg width="128" height="128" viewBox="0 0 128 128" fill="none" xmlns="http://www.w3.org/2000/svg">
<rect x="1.4641" y="-5.4641" width="34" height="92" rx="17" transform="matrix(0.866025 -0.5 -0.5 -0.866025 81.0159 107.138)" stroke="white" stroke-width="8"/>
<path d="M43.8174 27.1871C49.6165 17.1433 62.4599 13.7017 72.5039 19.5006C80.1232 23.8997 83.94 32.3526 82.8086 40.5621L72.2031 22.192L66.4951 25.4869C60.6645 23.3325 53.9583 25.6221 50.7451 31.1871L47.8057 36.2779L43.9834 38.4849L45.2569 40.691L21.7451 81.4166C18.1553 87.6344 20.2861 95.5855 26.5039 99.1754C32.7217 102.765 40.672 100.634 44.2617 94.4166L60.2686 66.691L64.8867 74.692L51.1905 98.4166L50.9131 98.8824C44.9904 108.566 32.3911 111.811 22.5039 106.103C12.6167 100.395 9.127 87.8602 14.5518 77.8892L14.8174 77.4166L43.8174 27.1871Z" fill="white"/>
</svg>
