<svg width="24" height="24" viewBox="0 0 24 24" fill="none" xmlns="http://www.w3.org/2000/svg">
<path d="M5.31529 2.1C6.10629 1.987 7.21529 2.245 8.64829 3.066L8.92029 3.227L9.08029 3.327L9.47729 3.244C10.9911 2.95149 12.5442 2.92442 14.0673 3.164L14.5233 3.244L14.9193 3.327L15.0803 3.227C16.4653 2.387 17.5673 2.057 18.4023 2.079L18.5663 2.087L18.7133 2.104L18.7893 2.118L18.8393 2.129L18.9833 2.176C19.2191 2.27346 19.4087 2.45734 19.5133 2.69C19.9225 3.6017 20.0603 4.61201 19.9103 5.6L19.8633 5.867L19.8173 6.063L19.9403 6.226C20.5143 7.021 20.8703 7.954 20.9703 8.933L20.9933 9.228L21.0003 9.5C21.0003 13.355 19.3413 15.383 16.3563 16.18L16.1113 16.241L15.9793 16.27L15.9933 16.431L16.0013 16.588L16.0053 16.953L16.0033 17.166L16.0003 21C16.0003 21.2449 15.9103 21.4813 15.7476 21.6644C15.5848 21.8474 15.3605 21.9643 15.1173 21.993L15.0003 22H9.00029C8.75536 22 8.51896 21.91 8.33592 21.7473C8.15289 21.5845 8.03595 21.3603 8.00729 21.117L8.00029 21V20.266C6.18229 20.526 4.97029 19.842 3.89029 18.388L3.35529 17.622C3.07529 17.226 2.90029 17.043 2.76629 16.978L2.71829 16.959C2.47071 16.8785 2.26425 16.7047 2.14281 16.4744C2.02137 16.2442 1.99452 15.9756 2.06796 15.7258C2.14141 15.4761 2.30936 15.2648 2.53611 15.1369C2.76287 15.009 3.03056 14.9746 3.28229 15.041C3.92429 15.229 4.35629 15.609 4.85229 16.28L5.39029 17.049C6.15029 18.128 6.75029 18.508 7.99929 18.24L8.00029 17.562L7.98229 17.394C7.95263 17.1204 7.9456 16.8448 7.96129 16.57L7.97829 16.385L7.99729 16.265L7.88929 16.241C4.91329 15.531 3.18629 13.668 3.01429 10.102L3.00429 9.792L3.00029 9.5C3.00145 8.41658 3.31686 7.35675 3.90829 6.449L4.06029 6.227L4.18229 6.064L4.13729 5.868C3.95701 4.98956 4.00696 4.07943 4.28229 3.226L4.38229 2.944L4.48829 2.691C4.59269 2.45852 4.78191 2.27467 5.01729 2.177L5.16129 2.13L5.31529 2.1Z" fill="white"/>
</svg>
