<svg width="256" height="256" viewBox="0 0 256 256" fill="none" xmlns="http://www.w3.org/2000/svg">
<g clip-path="url(#clip0_235_2)">
<rect width="256" height="256" rx="32" fill="white"/>
<rect x="2.9282" y="-10.9282" width="68" height="184" rx="34" transform="matrix(0.866025 -0.5 -0.5 -0.866025 162.032 214.277)" stroke="black" stroke-width="16"/>
<path d="M87.635 54.3753C99.233 34.287 124.92 27.4042 145.008 39.0022C160.247 47.8007 167.884 64.7067 165.62 81.1262L144.407 44.384L132.993 50.9739C121.332 46.6638 107.918 51.2443 101.491 62.3753L95.6135 72.554L87.967 76.97L90.5159 81.385L43.4914 162.834C36.312 175.27 40.5725 191.171 53.008 198.351C65.4435 205.53 81.3449 201.27 88.5246 188.834L120.537 133.385L129.776 149.385L102.381 196.834L101.827 197.766C89.982 217.133 64.7824 223.624 45.008 212.207C25.2337 200.791 18.2553 175.721 29.1047 155.78L29.635 154.834L87.635 54.3753Z" fill="black"/>
</g>
<defs>
<clipPath id="clip0_235_2">
<rect width="256" height="256" rx="32" fill="white"/>
</clipPath>
</defs>
</svg>
